<?xml version="1.0" encoding="utf-8"?>
<!-- Generator: Adobe Illustrator 16.0.0, SVG Export Plug-In . SVG Version: 6.00 Build 0)  -->
<!DOCTYPE svg PUBLIC "-//W3C//DTD SVG 1.1//EN" "http://www.w3.org/Graphics/SVG/1.1/DTD/svg11.dtd">
<svg version="1.1" id="Layer_1" xmlns="http://www.w3.org/2000/svg" xmlns:xlink="http://www.w3.org/1999/xlink" x="0px" y="0px"
	 width="1559px" height="1752.929px" viewBox="471.5 588.5 1559 1752.929" enable-background="new 471.5 588.5 1559 1752.929"
	 xml:space="preserve">
<path fill="none" d="M0,0.002h2500v2499.996H0V0.002z"/>
<path fill="#2062AF" d="M1882.251,2169.831l-632.26,170.243l-632.27-170.243L471.82,589.182h1556.35L1882.251,2169.831z"/>
<path fill="#3C9CD7" d="M1249.986,717.212v1487.08l1.43,0.39l511.661-137.777l118.102-1349.692H1249.986L1249.986,717.212z"/>
<path fill="#FFFFFF" d="M1249.425,1112.438l-452.529,188.467l15.007,186.596l437.522-187.069l465.41-198.984l19.296-190.88
	L1249.425,1112.438L1249.425,1112.438z"/>
<linearGradient id="SVGID_1_" gradientUnits="userSpaceOnUse" x1="-149.7183" y1="12.9238" x2="-149.7183" y2="-67.877" gradientTransform="matrix(4.6418 0 0 4.6418 1718.1194 1427.5083)">
	<stop  offset="0.387" style="stop-color:#D1D3D4;stop-opacity:0"/>
	<stop  offset="1" style="stop-color:#D1D3D4"/>
</linearGradient>
<path fill="url(#SVGID_1_)" d="M796.891,1300.904l15.007,186.596l437.522-187.069v-187.993L796.891,1300.904z"/>
<linearGradient id="SVGID_2_" gradientUnits="userSpaceOnUse" x1="-48.7612" y1="-27.377" x2="-48.7612" y2="-111.3662" gradientTransform="matrix(4.6418 0 0 4.6418 1718.1194 1427.5083)">
	<stop  offset="0.387" style="stop-color:#D1D3D4;stop-opacity:0"/>
	<stop  offset="1" style="stop-color:#D1D3D4"/>
</linearGradient>
<path fill="url(#SVGID_2_)" d="M1734.131,910.57l-484.706,201.867v187.993l465.41-198.984L1734.131,910.57z"/>
<linearGradient id="SVGID_3_" gradientUnits="userSpaceOnUse" x1="-198.3135" y1="48.9624" x2="-4.2485" y2="48.9624" gradientTransform="matrix(4.6418 0 0 4.6418 1718.1194 1427.5083)">
	<stop  offset="0" style="stop-color:#E8E7E5"/>
	<stop  offset="1" style="stop-color:#FFFFFF"/>
</linearGradient>
<path fill="url(#SVGID_3_)" d="M797.587,1300.904l15.012,186.596l671.32,2.14l-15.017,248.792l-220.903,62.19l-212.353-53.617
	l-12.867-154.424H825.466l25.738,298.12l398.939,117.957l396.777-115.817l51.478-591.937H797.587z"/>
<path opacity="0.05" enable-background="new    " d="M1249.425,1300.904H796.896l15.007,186.596l437.522,1.397V1300.904
	L1249.425,1300.904z M1249.425,1800.028l-2.145,0.599l-212.326-53.617l-12.866-154.424h-197.31l25.734,298.12l398.912,117.957
	V1800.028z"/>
<linearGradient id="SVGID_4_" gradientUnits="userSpaceOnUse" x1="-207.2427" y1="-90.8047" x2="3.4492" y2="-90.8047" gradientTransform="matrix(4.6418 0 0 4.6418 1718.1194 1427.5083)">
	<stop  offset="0" style="stop-color:#E8E7E5"/>
	<stop  offset="1" style="stop-color:#FFFFFF"/>
</linearGradient>
<path fill="url(#SVGID_4_)" d="M756.14,910.57h977.991l-19.296,190.881H779.729L756.14,910.57L756.14,910.57z"/>
<path opacity="0.05" enable-background="new    " d="M1249.425,910.57H756.14l23.59,190.881h469.695V910.57L1249.425,910.57z"/>
</svg>
