<?xml version="1.0" encoding="utf-8"?>
<!-- Generator: Adobe Illustrator 16.0.0, SVG Export Plug-In . SVG Version: 6.00 Build 0)  -->
<!DOCTYPE svg PUBLIC "-//W3C//DTD SVG 1.1//EN" "http://www.w3.org/Graphics/SVG/1.1/DTD/svg11.dtd">
<svg version="1.1" id="Layer_1" xmlns="http://www.w3.org/2000/svg" xmlns:xlink="http://www.w3.org/1999/xlink" x="0px" y="0px"
	 width="792px" height="496.475px" viewBox="0 0 792 496.475" enable-background="new 0 0 792 496.475" xml:space="preserve">
<g>
	<path fill-rule="evenodd" clip-rule="evenodd" fill="#EA4A4B" d="M792,268.194c-0.993-0.942-1.269,0.151-1.397,0.646
		c-2.494,9.548-10.251,14.883-17.042,20.842c-2.759,2.421-5.515,4.922-8.296,7.326c-7.976,6.892-15.486,14.318-23.213,21.5
		c-15.154,14.084-30.708,27.695-48.412,38.552c-9.623,5.901-19.8,11.064-31.012,12.741c-12.174,1.821-24.677,3.023-36.315-2.754
		c-8.748-4.343-13.048-11.67-13.519-21.57c-0.551-11.593,5.072-20.816,10.922-29.861c8.147-12.603,17.958-23.954,27.623-35.422
		c10.038-11.908,20.451-23.55,28.804-36.809c1.738-2.758,2.802-5.718,3.736-8.706c0.651-2.08-0.184-3.947-2.764-4.802
		c-5.285-1.751-10.294-0.336-15.1,1.367c-10.104,3.582-18.507,9.931-26.287,17.189c-16.444,15.345-29.629,33.273-40.961,52.543
		c-7.814,13.289-13.884,27.478-19.87,41.701c-4.214,10.012-8.681,19.933-13.034,29.895c-5.522,12.64-10.279,25.58-15.168,38.465
		c-6.489,17.098-12.914,34.218-18.991,51.474c-3.271,9.286-8.007,17.975-16.601,23.781c-1.504,1.017-2.979,1.556-4.8,1.53
		c-5.37-0.074-10.795-0.499-16.1,0.094c-6.533,0.73-9.975-5.772-11.013-10.27c-2.434-10.537,1.151-20.274,4.721-29.682
		c6.106-16.095,13.193-31.81,20.537-47.402c10.84-23.013,21.347-46.182,32.025-69.271c0.337-0.729,0.59-1.346,0.07-2.336
		c-1.79,0.675-3.275,1.78-4.667,3.1c-13.827,13.101-28.958,24.432-46.541,31.925c-11.769,5.017-24.125,7.603-36.892,3.488
		c-9.058-2.919-14.491-9.489-17.034-18.349c-0.812-2.823-1.219-2.59-3.2-1.151c-11.521,8.37-23.588,15.796-37.274,20.15
		c-7.661,2.438-15.497,3.42-23.32,0.909c-8.831-2.834-12.828-9.687-14.315-18.339c-1.458-8.491-0.88-17.007,0.167-26.306
		c-5.646,6.472-10.217,12.83-15.801,18.335c-13.069,12.882-28.299,21.96-46.3,25.639c-11.354,2.319-22.836,2.89-34.018-1.884
		c-10.486-4.477-15.931-12.705-17.918-23.37c-3.177-17.055,1.893-33.074,6.823-49.081c4.417-14.343,9.619-28.413,14.995-42.401
		c4.378-11.389,9.502-22.5,14.509-33.639c3.464-7.707,6.99-15.414,11.032-22.824c5.169-9.477,13.572-14.789,24.72-13.006
		c13.32,2.13,19.385,11.467,13.505,25.522c-6.298,15.053-14.995,28.903-22.131,43.551c-7.529,15.454-13.391,31.438-17.53,48.063
		c-1.234,4.957-1.56,10.149-1.001,15.301c0.521,4.803,3.928,6.626,8.665,6.337c14.386-0.874,24.382-9.262,34.076-18.604
		c11.556-11.135,20.321-24.301,28.175-38.111c8.1-14.243,15.67-28.774,20.688-44.459c3.093-9.667,6.307-19.277,11.81-27.903
		c3.999-6.268,8.812-10.94,17.199-10.74c5.896,0.14,12.578,4.615,15.003,10.699c3.07,7.702,2.04,15.162-0.761,22.758
		c-9.454,25.638-22.312,49.925-30.067,76.244c-2.326,7.89-4.09,15.852-5.067,23.977c-1.064,8.854,3.544,12.604,12.494,10.078
		c9.752-2.75,18.421-7.777,26.543-13.738c3.559-2.611,7.233-5.169,10.299-8.297c1.447-1.476,1.674-4.209,2.299-6.418
		c3.496-12.352,8.768-24.047,13.386-35.977c8.893-22.977,18.072-45.843,27.165-68.742c7.474-18.823,15.008-37.621,22.488-56.44
		c8.74-21.99,17.361-44.025,26.22-65.966c3.14-7.775,5.283-16.029,10.438-22.906c6.546-8.733,23.133-13.224,33.079-3.966
		c5.226,4.865,5.917,11.443,4.783,18.135c-1.635,9.645-6.715,18.013-10.437,26.876c-6.568,15.644-13.182,31.271-20.011,46.802
		c-8.207,18.665-15.668,37.631-23.337,56.514c-11.337,27.915-23.323,55.568-33.732,83.857c-3.454,9.389-8.092,18.299-11.286,27.804
		c-1.68,5.003-2.649,10.16-3.369,15.33c-0.752,5.396,2.739,7.943,8.075,6.328c9.408-2.848,17.393-8.359,25.18-14.039
		c13.857-10.105,26.933-21.155,39.348-33.035c4.936-4.723,9.773-9.56,14.765-14.229c0.547-0.511,0.984-1.361,1.613-1.528
		c5.777-1.537,6.185-6.796,7.456-11.147c3.501-11.967,7.48-23.76,12.917-34.97c3.478-7.169,7.336-14.258,14.426-18.75
		c8.375-5.307,21.146,0.678,23.117,10.369c1.239,6.089-0.382,11.648-1.401,17.389c-0.147,0.835-0.403,1.613,0.189,2.666
		c4.909-4.483,9.321-9.344,14.371-13.541c13.344-11.089,27.031-21.724,44.41-25.515c15.866-3.461,30.668-0.966,42.594,11.083
		c6.678,6.747,8.466,15.213,7.254,24.48c-2.168,16.569-10.824,30.198-19.787,43.65c-7.363,11.051-15.842,21.257-24.496,31.315
		c-7.152,8.314-14.247,16.677-21.299,25.076c-1.74,2.071-4.392,4.063-2.296,7.32c1.463,2.275,5.479,2.845,8.775,1.314
		c7.493-3.476,14.157-8.286,20.605-13.347c9.278-7.281,18.429-14.732,27.494-22.279c6.262-5.212,12.281-10.715,18.422-16.073
		c9.67-8.438,19.358-16.857,29.018-25.31c1.22-1.066,2.318-2.272,3.456-3.43c0.425-0.432,1.238-1.022,0.844-1.513
		c-3.196-3.97,1.253-4.003,2.811-5.069c2.068-1.417,4.289-2.713,6.997-3.045c5.593-0.686,8.863,2.032,10.999,6.783
		c0.09,0.199,0.37,0.383,0.59,0.424c0.122,0.023,0.304-0.261,0.459-0.407C792,255.203,792,261.698,792,268.194z"/>
	<path fill-rule="evenodd" clip-rule="evenodd" fill="#EA4A4B" d="M3.528,275.688c1.463,0.695,1.385-0.53,1.464-1.282
		c2.864-27.021,10.261-52.924,19.312-78.415c4.662-13.128,10.118-25.924,16.145-38.486c10.656-22.208,23.433-43.19,37.445-63.379
		c7.281-10.49,15.509-20.315,24.084-29.864c12.535-13.96,26.365-26.293,42.024-36.578c12.359-8.118,25.579-14.656,40.188-17.129
		c21.721-3.678,41.826,0.814,59.376,14.657c10.966,8.649,19.762,19.274,27.2,31.025c1.832,2.894,2.718,6.348,2.976,9.714
		c0.744,9.707,1.84,19.673-5.052,27.91c-6.542,7.818-18.575,9.54-26.838-0.238c-6.935-8.204-11.406-17.945-17.148-26.89
		c-5.948-9.266-14.421-14.37-25.182-15.016c-8.296-0.498-15.934,2.793-22.838,7.095c-16.11,10.039-29.028,23.516-40.83,38.278
		c-14.364,17.966-26.224,37.457-37.125,57.632c-13.172,24.379-23.745,49.836-31.939,76.264c-3.794,12.238-6.777,24.757-8.397,37.479
		c-0.98,7.697-2.137,15.484-1.594,23.285c0.57,8.182,1.082,16.57,4.736,24.007c4.452,9.057,11.605,14.287,23.714,10.518
		c9.75-3.033,18.021-8.725,25.979-14.834c11.247-8.633,21.244-18.664,31.119-28.804c10.333-10.608,19.308-22.318,28.205-34.136
		c8.755-11.628,12.777-25.058,16.7-38.688c3.034-10.541,6.717-20.893,9.871-31.401c1.86-6.2,4.267-11.947,9.021-16.562
		c6.063-5.886,19.615-7.504,25.955-2.395c4.345,3.502,6.417,8.052,6.713,13.312c1.13,20.047-4.384,38.846-11.22,57.362
		c-2.491,6.749-4.881,13.537-7.521,20.227c-3.673,9.308-8.414,18.145-11.251,27.843c-7.255,24.797-14.96,49.461-22.386,74.208
		c-4.833,16.107-9.36,32.307-14.274,48.388c-2.938,9.613-8.107,17.856-16.528,23.743c-4.688,3.277-9.655,2.955-14.594,0.852
		c-5.062-2.155-6.159-6.884-7.11-11.672c-2.949-14.852,1.669-28.738,5.585-42.649c5.119-18.185,10.591-36.271,16.545-54.204
		c0.229-0.688,0.29-1.431,0.429-2.147c0.637-0.268,0.816-0.689,0.437-1.298c-0.336,0.243-0.672,0.486-1.008,0.729
		c-7.495,7.274-14.687,14.866-22.58,21.726c-10.375,9.017-21.21,17.395-33.2,24.209c-8.947,5.085-18.038,9.72-28.24,11.853
		c-23.918,4.998-45.36-3.437-58.229-25.758c-3.67-6.367-6.377-13.117-8.299-20.209c-0.34-1.256-0.208-2.458-0.353-3.678
		c-0.105-0.884,0.112-2.097-1.488-1.631C3.528,305.668,3.528,290.678,3.528,275.688z"/>
	<path fill-rule="evenodd" clip-rule="evenodd" d="M155.917,314.147c0.336-0.243,0.672-0.486,1.008-0.729
		c0.38,0.608,0.201,1.03-0.437,1.298C156.298,314.526,156.107,314.336,155.917,314.147z"/>
</g>
</svg>
