<?xml version="1.0" encoding="utf-8"?>
<!-- Generator: Adobe Illustrator 16.0.0, SVG Export Plug-In . SVG Version: 6.00 Build 0)  -->
<!DOCTYPE svg PUBLIC "-//W3C//DTD SVG 1.1//EN" "http://www.w3.org/Graphics/SVG/1.1/DTD/svg11.dtd">
<svg version="1.1" id="Layer_1" xmlns="http://www.w3.org/2000/svg" xmlns:xlink="http://www.w3.org/1999/xlink" x="0px" y="0px"
	 width="253px" height="255px" viewBox="0 0 253 255" enable-background="new 0 0 253 255" xml:space="preserve">
<g>
	<g>
		<path fill-rule="evenodd" clip-rule="evenodd" fill="#FDFDFD" d="M0,78C0,52.333,0,26.667,0,1c84,0,168,0.026,252-0.096
			c3.424-0.005,4.102,0.671,4.096,4.096c-0.123,82.667-0.123,165.333,0,248c0.006,3.424-0.671,4.102-4.096,4.096
			c-82.666-0.123-165.333-0.123-248,0c-3.424,0.005-4.106-0.67-4.098-4.096C0.041,197.667,0,142.333,0,87
			c2.157,0.723,1.572,2.72,1.774,4.193c1.963,14.307,8.643,26.058,19.163,35.753c0.842,0.776,1.625,1.964,3.309,1.662
			c-15.744-28.058-11.517-54.471,8.311-77.409c22.827-26.409,51.362-34.546,84.632-18.476
			c-7.977-11.335-18.142-18.973-31.544-21.614C48.808,3.846,9.848,30.502,2.756,67.439C2.081,70.957,2.969,75.036,0,78z
			 M204.67,214.835c13.314,0,24.307-0.142,35.293,0.072c4.134,0.081,6.594-0.896,7.223-5.433c0.475-3.427,1.772-6.735,2.668-10.106
			c2.565-9.659,2.558-9.817-7.371-9.799c-3.982,0.008-4.465-1.098-3.033-4.604c4.771-11.687,9.068-23.561,12.031-35.849
			c4.328-17.955,1.993-34.49-11.777-47.912c-9.445-9.207-21.49-12.148-34.289-12.56c-22.16-0.712-41.076,6.209-54.299,24.715
			c-13.506,18.903-19.111,40.366-18.182,63.487c0.823,20.468,13.869,34.469,34.168,37.23
			C180.376,215.883,193.695,214.634,204.67,214.835z M65.764,254.504c0,0.11-0.001,0.221-0.001,0.33
			c2.832,0,5.664,0.034,8.495-0.006c12.3-0.173,21.254-5.677,26.728-16.763c2.067-4.187,3.965-8.462,4.986-13.008
			c5.644-25.119,11.158-50.268,16.768-75.395c0.634-2.839-0.157-3.937-3.168-3.873c-6.826,0.146-13.66,0.156-20.486-0.005
			c-3.071-0.072-4.463,1.1-5.101,4.095c-2.561,12.025-5.34,24.004-7.981,36.013c-1.999,9.09-3.747,18.237-5.903,27.288
			c-2.9,12.174-6.6,15.237-18.696,15.954c-2.519,0.148-3.939,1.035-4.497,3.645c-1.287,6.012-2.637,12.021-4.291,17.939
			c-0.912,3.265,0.513,3.828,3.171,3.795C59.113,254.474,62.439,254.504,65.764,254.504z M122.22,68.175
			C111.548,53.288,93.398,48.02,75.325,53.988c-22.919,7.568-37.055,27.729-36.54,52.112c0.285,13.48,8.402,28.579,16.663,30.993
			c-10.468-25.957-7.462-43.799,10.208-60.59C81.492,61.455,101.36,58.323,122.22,68.175z M110.48,139.162
			c3.658,0,7.321-0.111,10.973,0.037c2.673,0.108,3.944-1.082,4.452-3.587c1.121-5.528,2.178-11.078,3.581-16.536
			c0.837-3.258-0.187-4.179-3.329-4.116c-6.648,0.13-13.307,0.201-19.95-0.027c-3.442-0.119-4.684,1.415-5.248,4.507
			c-0.743,4.074-1.849,8.081-2.775,12.123c-1.742,7.601-1.735,7.603,6.31,7.603C106.49,139.165,108.485,139.165,110.48,139.162z
			 M123.642,96.36c-6.952-8.069-15.743-10.755-26.19-8.284c-12.62,2.986-22.868,14.087-24.997,27.515
			c-1.288,8.126,0.396,15.479,7.173,22.303C72.433,107.705,101.636,86.253,123.642,96.36z"/>
		<path fill-rule="evenodd" clip-rule="evenodd" fill="#166CAF" d="M0,78c2.969-2.964,2.081-7.043,2.756-10.561
			c7.092-36.938,46.051-63.594,82.889-56.33c13.402,2.642,23.567,10.279,31.544,21.614c-33.27-16.07-61.805-7.934-84.632,18.476
			c-19.828,22.938-24.055,49.352-8.311,77.409c-1.684,0.302-2.467-0.886-3.309-1.662c-10.52-9.695-17.2-21.446-19.163-35.753
			C1.572,89.72,2.157,87.723,0,87C0,84,0,81,0,78z"/>
		<path fill-rule="evenodd" clip-rule="evenodd" fill="#141C29" d="M204.67,214.835c-10.975-0.201-24.294,1.048-37.568-0.758
			c-20.299-2.762-33.345-16.763-34.168-37.23c-0.93-23.121,4.676-44.584,18.182-63.487c13.223-18.506,32.139-25.427,54.299-24.715
			c12.799,0.411,24.844,3.353,34.289,12.56c13.771,13.422,16.105,29.957,11.777,47.912c-2.963,12.288-7.261,24.162-12.031,35.849
			c-1.432,3.507-0.949,4.612,3.033,4.604c9.929-0.019,9.937,0.14,7.371,9.799c-0.896,3.371-2.193,6.68-2.668,10.106
			c-0.629,4.537-3.089,5.514-7.223,5.433C228.977,214.693,217.984,214.835,204.67,214.835z M193.92,188.835
			c3.997,0,8.01-0.219,11.987,0.065c3.562,0.254,5.068-1.385,5.935-4.555c3.195-11.692,6.637-23.318,9.741-35.034
			c1.015-3.829,1.716-7.846,1.806-11.794c0.197-8.655-2.326-16.212-10.768-20.32c-10.298-5.011-26.18-2.72-33.953,5.698
			c-12.893,13.964-16.503,31.243-14.814,49.537c1.006,10.904,8.011,16.161,19.074,16.391
			C186.59,188.898,190.256,188.835,193.92,188.835z"/>
		<path fill-rule="evenodd" clip-rule="evenodd" fill="#141C29" d="M65.764,254.504c-3.325,0-6.651-0.03-9.976,0.01
			c-2.658,0.033-4.083-0.53-3.171-3.795c1.654-5.919,3.003-11.928,4.291-17.939c0.558-2.609,1.979-3.496,4.497-3.645
			c12.097-0.717,15.796-3.78,18.696-15.954c2.156-9.051,3.904-18.198,5.903-27.288c2.641-12.009,5.42-23.987,7.981-36.013
			c0.638-2.995,2.03-4.167,5.101-4.095c6.826,0.161,13.66,0.15,20.486,0.005c3.011-0.063,3.802,1.034,3.168,3.873
			c-5.61,25.127-11.125,50.275-16.768,75.395c-1.021,4.546-2.919,8.821-4.986,13.008c-5.474,11.086-14.428,16.59-26.728,16.763
			c-2.831,0.04-5.663,0.006-8.495,0.006C65.763,254.725,65.764,254.614,65.764,254.504z"/>
		<path fill-rule="evenodd" clip-rule="evenodd" fill="#166CAF" d="M122.22,68.175c-20.86-9.852-40.729-6.72-56.564,8.329
			c-17.669,16.791-20.675,34.633-10.208,60.59c-8.261-2.414-16.378-17.513-16.663-30.993c-0.515-24.383,13.621-44.544,36.54-52.112
			C93.398,48.02,111.548,53.288,122.22,68.175z"/>
		<path fill-rule="evenodd" clip-rule="evenodd" fill="#141C29" d="M110.48,139.164c-1.995,0.001-3.991,0.001-5.986,0.001
			c-8.045,0-8.052-0.002-6.31-7.603c0.926-4.042,2.032-8.049,2.775-12.123c0.564-3.092,1.806-4.626,5.248-4.507
			c6.643,0.229,13.302,0.157,19.95,0.027c3.142-0.063,4.166,0.858,3.329,4.116c-1.403,5.458-2.46,11.008-3.581,16.536
			c-0.508,2.505-1.778,3.695-4.452,3.587C117.801,139.051,114.139,139.162,110.48,139.164z"/>
		<path fill-rule="evenodd" clip-rule="evenodd" fill="#166CAF" d="M123.642,96.36c-22.006-10.107-51.209,11.345-44.014,41.533
			c-6.776-6.823-8.461-14.177-7.173-22.303c2.128-13.428,12.377-24.528,24.997-27.515C107.899,85.605,116.69,88.291,123.642,96.36z"
			/>
		<path fill-rule="evenodd" clip-rule="evenodd" fill="#FDFDFD" d="M193.92,188.835c-3.664,0-7.33,0.063-10.992-0.012
			c-11.063-0.229-18.068-5.486-19.074-16.391c-1.688-18.294,1.922-35.573,14.814-49.537c7.773-8.418,23.655-10.709,33.953-5.698
			c8.441,4.108,10.965,11.665,10.768,20.32c-0.09,3.948-0.791,7.965-1.806,11.794c-3.104,11.716-6.546,23.342-9.741,35.034
			c-0.866,3.17-2.373,4.809-5.935,4.555C201.93,188.616,197.917,188.835,193.92,188.835z"/>
	</g>
</g>
</svg>
