<?xml version="1.0" encoding="utf-8"?>
<!-- Generator: Adobe Illustrator 16.0.0, SVG Export Plug-In . SVG Version: 6.00 Build 0)  -->
<!DOCTYPE svg PUBLIC "-//W3C//DTD SVG 1.1//EN" "http://www.w3.org/Graphics/SVG/1.1/DTD/svg11.dtd">
<svg version="1.1" id="Layer_1" xmlns="http://www.w3.org/2000/svg" xmlns:xlink="http://www.w3.org/1999/xlink" x="0px" y="0px"
	 width="320px" height="320px" viewBox="0 0 320 320" enable-background="new 0 0 320 320" xml:space="preserve">
<g>
	<g>
		<path fill-rule="evenodd" clip-rule="evenodd" fill="#CC669A" d="M176,321c-10.334,0-20.667,0-31,0
			c-0.596-1.073-1.685-0.904-2.638-1.007c-14.833-1.603-29.193-5.186-42.84-11.156C51.184,287.688,19.943,251.67,5.856,200.739
			C3.69,192.908,3.375,184.755,1,177c0-10.667,0-21.333,0-32c1.074-0.596,0.904-1.685,1.008-2.638
			c1.598-14.66,5.112-28.858,10.978-42.374c21.17-48.772,57.396-80.206,108.761-94.244C129.424,3.646,137.418,3.387,145,1
			c10.333,0,20.666,0,31,0c0.475,0.872,1.327,0.854,2.148,0.925c15.387,1.345,30.223,5.081,44.331,11.247
			c48.342,21.129,79.581,57.155,93.655,108.085c2.252,8.152,2.714,16.603,4.865,24.743c0,10.333,0,20.667,0,31
			c-1.073,0.596-0.904,1.685-1.008,2.638c-1.598,14.659-5.111,28.857-10.978,42.372c-21.169,48.771-57.393,80.205-108.755,94.241
			C192.258,318.438,183.955,318.769,176,321z M121.742,205.436c-1.479,0.854-2.59,1.525-3.727,2.149
			c-13.904,7.636-27.515,15.706-38.419,27.502c-7.392,7.996-10.823,17.451-9.675,28.397c0.868,8.274,6.112,15.485,12.57,17.069
			c9.503,2.331,18.914,1.753,27.956-1.937c25.971-10.599,39.316-36.974,32.359-64.445c-1.201-4.742,0.315-5.717,4.354-6.265
			c6.837-0.929,13.653-0.977,20.409,0.197c8.967,1.557,17.502,4.24,24.004,11.194c9.237,9.88,8.473,20.728-2.02,28.751
			c-1.104,0.845-3.306,1.492-2.259,3.249c1.024,1.721,3.005,0.703,4.508,0.077c9.284-3.866,14.741-14.045,12.788-24.109
			c-2.788-14.362-12.096-23.014-25.321-27.754c-13.309-4.77-26.896-3.677-40.403-0.754c-2.684,0.581-4.566,0.446-6.63-1.718
			c-5.415-5.676-11.747-10.33-17.937-15.128c-7.503-5.815-15.148-11.481-21.404-18.721c-10.698-12.378-12.042-26.404-4-40.676
			c2.968-5.267,6.662-9.959,10.893-14.245c12.564-12.731,27.627-21.912,43.337-30.072c21.361-11.096,43.644-19.042,68.181-18.597
			c8.767,0.158,17.247,1.545,24.941,6.073c5.785,3.404,8.705,8.489,8.818,15.228c0.151,8.952-3.463,16.621-8.627,23.486
			c-15.264,20.29-36.359,30.745-60.907,34.722c-13.833,2.241-27.363,1.995-38.213-9.019c-0.702-0.713-1.628-1.327-2.678-0.749
			c-1.271,0.7-1.124,1.914-0.817,3.084c0.736,2.812,2.273,5.175,4.258,7.24c5.496,5.718,12.211,9.402,20.012,10.441
			c25.015,3.332,48.563-1.452,69.875-14.889c16.576-10.45,28.335-25.055,33.417-44.447c4.926-18.796-2.091-34.595-19.35-43.406
			c-9.541-4.871-19.791-6.772-30.354-7.356c-21.236-1.174-41.294,3.648-60.764,11.769c-25.255,10.533-48.924,23.54-68.475,43.085
			c-6.741,6.739-12.671,14.142-17.057,22.673c-9.558,18.592-8.051,31.294,5.595,47.257c9.522,11.141,21.398,19.453,33.295,27.752
			C110.11,196.615,116.194,200.368,121.742,205.436z"/>
		<path fill-rule="evenodd" clip-rule="evenodd" fill="#FEFDFD" d="M321,146c-2.151-8.141-2.613-16.591-4.865-24.743
			c-14.074-50.93-45.313-86.956-93.655-108.085c-14.108-6.166-28.944-9.902-44.331-11.247C177.327,1.854,176.475,1.872,176,1
			c47.086,0,94.171,0.035,141.256-0.08c3.12-0.008,3.832,0.704,3.824,3.824C320.965,51.829,321,98.914,321,146z"/>
		<path fill-rule="evenodd" clip-rule="evenodd" fill="#FEFDFD" d="M176,321c7.955-2.231,16.258-2.563,24.26-4.749
			c51.362-14.036,87.586-45.47,108.755-94.241c5.866-13.515,9.38-27.713,10.978-42.372c0.104-0.953-0.065-2.042,1.008-2.638
			c0,46.753-0.035,93.505,0.08,140.257c0.008,3.122-0.707,3.831-3.824,3.823C270.17,320.965,223.085,321,176,321z"/>
		<path fill-rule="evenodd" clip-rule="evenodd" fill="#FEFDFD" d="M145,1c-7.582,2.387-15.576,2.646-23.253,4.744
			C70.382,19.782,34.156,51.216,12.986,99.988c-5.866,13.516-9.38,27.714-10.978,42.374C1.904,143.315,2.074,144.404,1,145
			C1,98.167,1.036,51.333,0.917,4.5C0.909,1.518,1.517,0.909,4.5,0.917C51.333,1.035,98.167,1,145,1z"/>
		<path fill-rule="evenodd" clip-rule="evenodd" fill="#FEFDFD" d="M1,177c2.375,7.755,2.69,15.908,4.856,23.739
			c14.086,50.931,45.328,86.948,93.666,108.098c13.647,5.971,28.008,9.554,42.84,11.156c0.953,0.103,2.042-0.066,2.638,1.007
			c-46.752,0-93.504-0.036-140.256,0.08c-3.12,0.008-3.832-0.704-3.824-3.824C1.036,270.504,1,223.752,1,177z"/>
		<path fill-rule="evenodd" clip-rule="evenodd" fill="#FDFBFC" d="M121.742,205.436c-5.547-5.067-11.632-8.82-17.465-12.89
			c-11.897-8.299-23.773-16.611-33.295-27.752c-13.646-15.963-15.153-28.665-5.595-47.257c4.385-8.531,10.316-15.934,17.057-22.673
			c19.55-19.545,43.219-32.552,68.475-43.085c19.47-8.12,39.527-12.942,60.764-11.769c10.563,0.584,20.813,2.485,30.354,7.356
			c17.259,8.812,24.275,24.61,19.35,43.406c-5.082,19.393-16.841,33.997-33.417,44.447c-21.313,13.437-44.86,18.221-69.875,14.889
			c-7.801-1.039-14.516-4.724-20.012-10.441c-1.985-2.065-3.522-4.429-4.258-7.24c-0.307-1.17-0.454-2.384,0.817-3.084
			c1.05-0.578,1.976,0.036,2.678,0.749c10.85,11.014,24.38,11.26,38.213,9.019c24.548-3.977,45.644-14.432,60.907-34.722
			c5.164-6.865,8.778-14.534,8.627-23.486c-0.113-6.738-3.033-11.823-8.818-15.228c-7.694-4.528-16.175-5.915-24.941-6.073
			c-24.537-0.445-46.82,7.501-68.181,18.597c-15.71,8.16-30.773,17.341-43.337,30.072c-4.23,4.286-7.925,8.979-10.893,14.245
			c-8.042,14.271-6.697,28.298,4,40.676c6.256,7.239,13.9,12.905,21.404,18.721c6.19,4.798,12.522,9.452,17.937,15.128
			c2.064,2.164,3.947,2.299,6.63,1.718c13.508-2.923,27.095-4.016,40.403,0.754c13.226,4.74,22.533,13.392,25.321,27.754
			c1.953,10.064-3.504,20.243-12.788,24.109c-1.503,0.626-3.483,1.644-4.508-0.077c-1.047-1.757,1.155-2.404,2.259-3.249
			c10.492-8.023,11.257-18.871,2.02-28.751c-6.502-6.954-15.037-9.638-24.004-11.194c-6.756-1.174-13.572-1.126-20.409-0.197
			c-4.039,0.548-5.556,1.522-4.354,6.265c6.957,27.472-6.388,53.847-32.359,64.445c-9.042,3.689-18.452,4.268-27.956,1.937
			c-6.458-1.584-11.702-8.795-12.57-17.069c-1.148-10.946,2.284-20.401,9.675-28.397c10.904-11.796,24.515-19.866,38.419-27.502
			C119.151,206.961,120.262,206.29,121.742,205.436z M130.64,224.458c-0.136-1.176-0.469-3.642-0.693-6.118
			c-0.272-3.012-1.413-3.564-4.156-2.076c-9.545,5.175-18.526,11.113-26.065,18.988c-4.639,4.846-8.332,10.346-10.028,16.972
			c-1.006,3.926-1.984,8.052,1.324,11.259c3.296,3.195,7.441,2.222,11.307,1.047C118.728,259.548,130.744,243.046,130.64,224.458z"
			/>
		<path fill-rule="evenodd" clip-rule="evenodd" fill="#CC669A" d="M130.64,224.458c0.104,18.588-11.913,35.09-28.312,40.071
			c-3.866,1.175-8.011,2.148-11.307-1.047c-3.308-3.207-2.33-7.333-1.324-11.259c1.697-6.626,5.389-12.126,10.028-16.972
			c7.54-7.875,16.52-13.813,26.065-18.988c2.744-1.488,3.884-0.936,4.156,2.076C130.171,220.816,130.504,223.282,130.64,224.458z"/>
	</g>
</g>
</svg>
